<svg width="51" height="51" viewBox="0 0 51 51" fill="none" xmlns="http://www.w3.org/2000/svg">
<rect width="51" height="51" fill="#EDE9E0"/>
<path fill-rule="evenodd" clip-rule="evenodd" d="M33.7154 46.6944V30.161H39.2657L40.0961 23.7184H33.7133V19.6048C33.7133 17.7391 34.232 16.4668 36.909 16.4668H40.3202V10.703C38.6682 10.5272 37.0077 10.4417 35.3463 10.4469C30.4279 10.4469 27.0615 13.4504 27.0615 18.9644V23.7184H21.4941V30.161H27.0594V46.6944H6.77308C5.4709 46.6944 4.41635 45.6399 4.41635 44.3377V6.35673C4.41635 5.05455 5.4709 4 6.77308 4H44.7541C46.0562 4 47.1108 5.05455 47.1108 6.35673V44.3377C47.1108 45.6399 46.0562 46.6944 44.7541 46.6944H33.7154Z" fill="#4A3A2B"/>
</svg>
