<svg width="355" height="355" viewBox="0 0 355 355" fill="none" xmlns="http://www.w3.org/2000/svg">
<g clip-path="url(#clip0_255_240)">
<rect width="355" height="355" fill="url(#paint0_linear_255_240)"/>
<path d="M355 0H0V355H355V0Z" fill="#4A3A2B"/>
<path d="M21.4291 11.36H11.36V21.4291H21.4291V11.36Z" fill="#EDE9E0"/>
<path d="M31.4982 11.36H21.4291V21.4291H31.4982V11.36Z" fill="#EDE9E0"/>
<path d="M41.5673 11.36H31.4982V21.4291H41.5673V11.36Z" fill="#EDE9E0"/>
<path d="M51.6364 11.36H41.5673V21.4291H51.6364V11.36Z" fill="#EDE9E0"/>
<path d="M61.7055 11.36H51.6364V21.4291H61.7055V11.36Z" fill="#EDE9E0"/>
<path d="M71.7746 11.36H61.7055V21.4291H71.7746V11.36Z" fill="#EDE9E0"/>
<path d="M81.8436 11.36H71.7746V21.4291H81.8436V11.36Z" fill="#EDE9E0"/>
<path d="M101.982 11.36H91.9127V21.4291H101.982V11.36Z" fill="#EDE9E0"/>
<path d="M112.051 11.36H101.982V21.4291H112.051V11.36Z" fill="#EDE9E0"/>
<path d="M222.811 11.36H212.742V21.4291H222.811V11.36Z" fill="#EDE9E0"/>
<path d="M232.88 11.36H222.811V21.4291H232.88V11.36Z" fill="#EDE9E0"/>
<path d="M242.949 11.36H232.88V21.4291H242.949V11.36Z" fill="#EDE9E0"/>
<path d="M253.018 11.36H242.949V21.4291H253.018V11.36Z" fill="#EDE9E0"/>
<path d="M263.087 11.36H253.018V21.4291H263.087V11.36Z" fill="#EDE9E0"/>
<path d="M283.225 11.36H273.156V21.4291H283.225V11.36Z" fill="#EDE9E0"/>
<path d="M293.295 11.36H283.225V21.4291H293.295V11.36Z" fill="#EDE9E0"/>
<path d="M303.364 11.36H293.295V21.4291H303.364V11.36Z" fill="#EDE9E0"/>
<path d="M313.433 11.36H303.364V21.4291H313.433V11.36Z" fill="#EDE9E0"/>
<path d="M323.502 11.36H313.433V21.4291H323.502V11.36Z" fill="#EDE9E0"/>
<path d="M333.571 11.36H323.502V21.4291H333.571V11.36Z" fill="#EDE9E0"/>
<path d="M343.64 11.36H333.571V21.4291H343.64V11.36Z" fill="#EDE9E0"/>
<path d="M21.4291 21.4291H11.36V31.4982H21.4291V21.4291Z" fill="#EDE9E0"/>
<path d="M81.8436 21.4291H71.7746V31.4982H81.8436V21.4291Z" fill="#EDE9E0"/>
<path d="M152.327 21.4291H142.258V31.4982H152.327V21.4291Z" fill="#EDE9E0"/>
<path d="M162.396 21.4291H152.327V31.4982H162.396V21.4291Z" fill="#EDE9E0"/>
<path d="M202.673 21.4291H192.604V31.4982H202.673V21.4291Z" fill="#EDE9E0"/>
<path d="M222.811 21.4291H212.742V31.4982H222.811V21.4291Z" fill="#EDE9E0"/>
<path d="M232.88 21.4291H222.811V31.4982H232.88V21.4291Z" fill="#EDE9E0"/>
<path d="M263.087 21.4291H253.018V31.4982H263.087V21.4291Z" fill="#EDE9E0"/>
<path d="M283.225 21.4291H273.156V31.4982H283.225V21.4291Z" fill="#EDE9E0"/>
<path d="M343.64 21.4291H333.571V31.4982H343.64V21.4291Z" fill="#EDE9E0"/>
<path d="M21.4291 31.4982H11.36V41.5673H21.4291V31.4982Z" fill="#EDE9E0"/>
<path d="M41.5673 31.4982H31.4982V41.5673H41.5673V31.4982Z" fill="#EDE9E0"/>
<path d="M51.6364 31.4982H41.5673V41.5673H51.6364V31.4982Z" fill="#EDE9E0"/>
<path d="M61.7055 31.4982H51.6364V41.5673H61.7055V31.4982Z" fill="#EDE9E0"/>
<path d="M81.8436 31.4982H71.7746V41.5673H81.8436V31.4982Z" fill="#EDE9E0"/>
<path d="M122.12 31.4982H112.051V41.5673H122.12V31.4982Z" fill="#EDE9E0"/>
<path d="M172.465 31.4982H162.396V41.5673H172.465V31.4982Z" fill="#EDE9E0"/>
<path d="M182.535 31.4982H172.465V41.5673H182.535V31.4982Z" fill="#EDE9E0"/>
<path d="M222.811 31.4982H212.742V41.5673H222.811V31.4982Z" fill="#EDE9E0"/>
<path d="M242.949 31.4982H232.88V41.5673H242.949V31.4982Z" fill="#EDE9E0"/>
<path d="M253.018 31.4982H242.949V41.5673H253.018V31.4982Z" fill="#EDE9E0"/>
<path d="M283.225 31.4982H273.156V41.5673H283.225V31.4982Z" fill="#EDE9E0"/>
<path d="M303.364 31.4982H293.295V41.5673H303.364V31.4982Z" fill="#EDE9E0"/>
<path d="M313.433 31.4982H303.364V41.5673H313.433V31.4982Z" fill="#EDE9E0"/>
<path d="M323.502 31.4982H313.433V41.5673H323.502V31.4982Z" fill="#EDE9E0"/>
<path d="M343.64 31.4982H333.571V41.5673H343.64V31.4982Z" fill="#EDE9E0"/>
<path d="M21.4291 41.5673H11.36V51.6364H21.4291V41.5673Z" fill="#EDE9E0"/>
<path d="M41.5673 41.5673H31.4982V51.6364H41.5673V41.5673Z" fill="#EDE9E0"/>
<path d="M51.6364 41.5673H41.5673V51.6364H51.6364V41.5673Z" fill="#EDE9E0"/>
<path d="M61.7055 41.5673H51.6364V51.6364H61.7055V41.5673Z" fill="#EDE9E0"/>
<path d="M81.8436 41.5673H71.7746V51.6364H81.8436V41.5673Z" fill="#EDE9E0"/>
<path d="M101.982 41.5673H91.9127V51.6364H101.982V41.5673Z" fill="#EDE9E0"/>
<path d="M122.12 41.5673H112.051V51.6364H122.12V41.5673Z" fill="#EDE9E0"/>
<path d="M162.396 41.5673H152.327V51.6364H162.396V41.5673Z" fill="#EDE9E0"/>
<path d="M182.535 41.5673H172.465V51.6364H182.535V41.5673Z" fill="#EDE9E0"/>
<path d="M192.604 41.5673H182.535V51.6364H192.604V41.5673Z" fill="#EDE9E0"/>
<path d="M202.673 41.5673H192.604V51.6364H202.673V41.5673Z" fill="#EDE9E0"/>
<path d="M222.811 41.5673H212.742V51.6364H222.811V41.5673Z" fill="#EDE9E0"/>
<path d="M253.018 41.5673H242.949V51.6364H253.018V41.5673Z" fill="#EDE9E0"/>
<path d="M263.087 41.5673H253.018V51.6364H263.087V41.5673Z" fill="#EDE9E0"/>
<path d="M283.225 41.5673H273.156V51.6364H283.225V41.5673Z" fill="#EDE9E0"/>
<path d="M303.364 41.5673H293.295V51.6364H303.364V41.5673Z" fill="#EDE9E0"/>
<path d="M313.433 41.5673H303.364V51.6364H313.433V41.5673Z" fill="#EDE9E0"/>
<path d="M323.502 41.5673H313.433V51.6364H323.502V41.5673Z" fill="#EDE9E0"/>
<path d="M343.64 41.5673H333.571V51.6364H343.64V41.5673Z" fill="#EDE9E0"/>
<path d="M21.4291 51.6364H11.36V61.7054H21.4291V51.6364Z" fill="#EDE9E0"/>
<path d="M41.5673 51.6364H31.4982V61.7054H41.5673V51.6364Z" fill="#EDE9E0"/>
<path d="M51.6364 51.6364H41.5673V61.7054H51.6364V51.6364Z" fill="#EDE9E0"/>
<path d="M61.7055 51.6364H51.6364V61.7054H61.7055V51.6364Z" fill="#EDE9E0"/>
<path d="M81.8436 51.6364H71.7746V61.7054H81.8436V51.6364Z" fill="#EDE9E0"/>
<path d="M101.982 51.6364H91.9127V61.7054H101.982V51.6364Z" fill="#EDE9E0"/>
<path d="M112.051 51.6364H101.982V61.7054H112.051V51.6364Z" fill="#EDE9E0"/>
<path d="M122.12 51.6364H112.051V61.7054H122.12V51.6364Z" fill="#EDE9E0"/>
<path d="M132.189 51.6364H122.12V61.7054H132.189V51.6364Z" fill="#EDE9E0"/>
<path d="M142.258 51.6364H132.189V61.7054H142.258V51.6364Z" fill="#EDE9E0"/>
<path d="M152.327 51.6364H142.258V61.7054H152.327V51.6364Z" fill="#EDE9E0"/>
<path d="M162.396 51.6364H152.327V61.7054H162.396V51.6364Z" fill="#EDE9E0"/>
<path d="M192.604 51.6364H182.535V61.7054H192.604V51.6364Z" fill="#EDE9E0"/>
<path d="M202.673 51.6364H192.604V61.7054H202.673V51.6364Z" fill="#EDE9E0"/>
<path d="M222.811 51.6364H212.742V61.7054H222.811V51.6364Z" fill="#EDE9E0"/>
<path d="M232.88 51.6364H222.811V61.7054H232.88V51.6364Z" fill="#EDE9E0"/>
<path d="M242.949 51.6364H232.88V61.7054H242.949V51.6364Z" fill="#EDE9E0"/>
<path d="M263.087 51.6364H253.018V61.7054H263.087V51.6364Z" fill="#EDE9E0"/>
<path d="M283.225 51.6364H273.156V61.7054H283.225V51.6364Z" fill="#EDE9E0"/>
<path d="M303.364 51.6364H293.295V61.7054H303.364V51.6364Z" fill="#EDE9E0"/>
<path d="M313.433 51.6364H303.364V61.7054H313.433V51.6364Z" fill="#EDE9E0"/>
<path d="M323.502 51.6364H313.433V61.7054H323.502V51.6364Z" fill="#EDE9E0"/>
<path d="M343.64 51.6364H333.571V61.7054H343.64V51.6364Z" fill="#EDE9E0"/>
<path d="M21.4291 61.7054H11.36V71.7745H21.4291V61.7054Z" fill="#EDE9E0"/>
<path d="M81.8436 61.7054H71.7746V71.7745H81.8436V61.7054Z" fill="#EDE9E0"/>
<path d="M101.982 61.7054H91.9127V71.7745H101.982V61.7054Z" fill="#EDE9E0"/>
<path d="M132.189 61.7054H122.12V71.7745H132.189V61.7054Z" fill="#EDE9E0"/>
<path d="M152.327 61.7054H142.258V71.7745H152.327V61.7054Z" fill="#EDE9E0"/>
<path d="M182.535 61.7054H172.465V71.7745H182.535V61.7054Z" fill="#EDE9E0"/>
<path d="M192.604 61.7054H182.535V71.7745H192.604V61.7054Z" fill="#EDE9E0"/>
<path d="M212.742 61.7054H202.673L202.673 71.7745H212.742V61.7054Z" fill="#EDE9E0"/>
<path d="M222.811 61.7054H212.742V71.7745H222.811V61.7054Z" fill="#EDE9E0"/>
<path d="M232.88 61.7054H222.811V71.7745H232.88V61.7054Z" fill="#EDE9E0"/>
<path d="M242.949 61.7054H232.88V71.7745H242.949V61.7054Z" fill="#EDE9E0"/>
<path d="M253.018 61.7054H242.949V71.7745H253.018V61.7054Z" fill="#EDE9E0"/>
<path d="M263.087 61.7054H253.018V71.7745H263.087V61.7054Z" fill="#EDE9E0"/>
<path d="M283.225 61.7054H273.156V71.7745H283.225V61.7054Z" fill="#EDE9E0"/>
<path d="M343.64 61.7054H333.571V71.7745H343.64V61.7054Z" fill="#EDE9E0"/>
<path d="M21.4291 71.7745H11.36V81.8436H21.4291V71.7745Z" fill="#EDE9E0"/>
<path d="M31.4982 71.7745H21.4291V81.8436H31.4982V71.7745Z" fill="#EDE9E0"/>
<path d="M41.5673 71.7745H31.4982V81.8436H41.5673V71.7745Z" fill="#EDE9E0"/>
<path d="M51.6364 71.7745H41.5673V81.8436H51.6364V71.7745Z" fill="#EDE9E0"/>
<path d="M61.7055 71.7745H51.6364V81.8436H61.7055V71.7745Z" fill="#EDE9E0"/>
<path d="M71.7746 71.7745H61.7055V81.8436H71.7746V71.7745Z" fill="#EDE9E0"/>
<path d="M81.8436 71.7745H71.7746V81.8436H81.8436V71.7745Z" fill="#EDE9E0"/>
<path d="M101.982 71.7745H91.9127V81.8436H101.982V71.7745Z" fill="#EDE9E0"/>
<path d="M122.12 71.7745H112.051V81.8436H122.12V71.7745Z" fill="#EDE9E0"/>
<path d="M142.258 71.7745H132.189V81.8436H142.258V71.7745Z" fill="#EDE9E0"/>
<path d="M162.396 71.7745H152.327V81.8436H162.396V71.7745Z" fill="#EDE9E0"/>
<path d="M182.535 71.7745H172.465V81.8436H182.535V71.7745Z" fill="#EDE9E0"/>
<path d="M202.673 71.7745H192.604V81.8436H202.673L202.673 71.7745Z" fill="#EDE9E0"/>
<path d="M222.811 71.7745H212.742V81.8436H222.811V71.7745Z" fill="#EDE9E0"/>
<path d="M242.949 71.7745H232.88V81.8436H242.949V71.7745Z" fill="#EDE9E0"/>
<path d="M263.087 71.7745H253.018V81.8436H263.087V71.7745Z" fill="#EDE9E0"/>
<path d="M283.225 71.7745H273.156V81.8436H283.225V71.7745Z" fill="#EDE9E0"/>
<path d="M293.295 71.7745H283.225V81.8436H293.295V71.7745Z" fill="#EDE9E0"/>
<path d="M303.364 71.7745H293.295V81.8436H303.364V71.7745Z" fill="#EDE9E0"/>
<path d="M313.433 71.7745H303.364V81.8436H313.433V71.7745Z" fill="#EDE9E0"/>
<path d="M323.502 71.7745H313.433V81.8436H323.502V71.7745Z" fill="#EDE9E0"/>
<path d="M333.571 71.7745H323.502V81.8436H333.571V71.7745Z" fill="#EDE9E0"/>
<path d="M343.64 71.7745H333.571V81.8436H343.64V71.7745Z" fill="#EDE9E0"/>
<path d="M101.982 81.8436H91.9127V91.9127H101.982V81.8436Z" fill="#EDE9E0"/>
<path d="M122.12 81.8436H112.051V91.9127H122.12V81.8436Z" fill="#EDE9E0"/>
<path d="M142.258 81.8436H132.189V91.9127H142.258V81.8436Z" fill="#EDE9E0"/>
<path d="M172.465 81.8436H162.396V91.9127H172.465V81.8436Z" fill="#EDE9E0"/>
<path d="M192.604 81.8436H182.535V91.9127H192.604V81.8436Z" fill="#EDE9E0"/>
<path d="M232.88 81.8436H222.811V91.9127H232.88V81.8436Z" fill="#EDE9E0"/>
<path d="M253.018 81.8436H242.949V91.9127H253.018V81.8436Z" fill="#EDE9E0"/>
<path d="M263.087 81.8436H253.018V91.9127H263.087V81.8436Z" fill="#EDE9E0"/>
<path d="M21.4291 91.9127H11.36V101.982H21.4291V91.9127Z" fill="#EDE9E0"/>
<path d="M31.4982 91.9127H21.4291V101.982H31.4982V91.9127Z" fill="#EDE9E0"/>
<path d="M41.5673 91.9127H31.4982V101.982H41.5673V91.9127Z" fill="#EDE9E0"/>
<path d="M61.7055 91.9127H51.6364V101.982H61.7055V91.9127Z" fill="#EDE9E0"/>
<path d="M81.8436 91.9127H71.7746V101.982H81.8436V91.9127Z" fill="#EDE9E0"/>
<path d="M101.982 91.9127H91.9127V101.982H101.982V91.9127Z" fill="#EDE9E0"/>
<path d="M112.051 91.9127H101.982V101.982H112.051V91.9127Z" fill="#EDE9E0"/>
<path d="M122.12 91.9127H112.051V101.982H122.12V91.9127Z" fill="#EDE9E0"/>
<path d="M152.327 91.9127H142.258V101.982H152.327V91.9127Z" fill="#EDE9E0"/>
<path d="M172.465 91.9127H162.396V101.982H172.465V91.9127Z" fill="#EDE9E0"/>
<path d="M182.535 91.9127H172.465V101.982H182.535V91.9127Z" fill="#EDE9E0"/>
<path d="M212.742 91.9127H202.673V101.982H212.742V91.9127Z" fill="#EDE9E0"/>
<path d="M222.811 91.9127H212.742V101.982H222.811V91.9127Z" fill="#EDE9E0"/>
<path d="M253.018 91.9127H242.949V101.982H253.018V91.9127Z" fill="#EDE9E0"/>
<path d="M263.087 91.9127H253.018V101.982H263.087V91.9127Z" fill="#EDE9E0"/>
<path d="M273.156 91.9127H263.087V101.982H273.156V91.9127Z" fill="#EDE9E0"/>
<path d="M283.225 91.9127H273.156V101.982H283.225V91.9127Z" fill="#EDE9E0"/>
<path d="M293.295 91.9127H283.225V101.982H293.295V91.9127Z" fill="#EDE9E0"/>
<path d="M303.364 91.9127H293.295V101.982H303.364V91.9127Z" fill="#EDE9E0"/>
<path d="M313.433 91.9127H303.364V101.982H313.433V91.9127Z" fill="#EDE9E0"/>
<path d="M343.64 91.9127H333.571V101.982H343.64V91.9127Z" fill="#EDE9E0"/>
<path d="M21.4291 101.982H11.36V112.051H21.4291V101.982Z" fill="#EDE9E0"/>
<path d="M31.4982 101.982H21.4291V112.051H31.4982V101.982Z" fill="#EDE9E0"/>
<path d="M61.7055 101.982H51.6364V112.051H61.7055V101.982Z" fill="#EDE9E0"/>
<path d="M132.189 101.982H122.12V112.051H132.189V101.982Z" fill="#EDE9E0"/>
<path d="M152.327 101.982H142.258V112.051H152.327V101.982Z" fill="#EDE9E0"/>
<path d="M212.742 101.982H202.673V112.051H212.742V101.982Z" fill="#EDE9E0"/>
<path d="M222.811 101.982H212.742V112.051H222.811V101.982Z" fill="#EDE9E0"/>
<path d="M263.087 101.982H253.018V112.051H263.087V101.982Z" fill="#EDE9E0"/>
<path d="M283.225 101.982H273.156V112.051H283.225V101.982Z" fill="#EDE9E0"/>
<path d="M313.433 101.982H303.364V112.051H313.433V101.982Z" fill="#EDE9E0"/>
<path d="M323.502 101.982H313.433V112.051H323.502V101.982Z" fill="#EDE9E0"/>
<path d="M343.64 101.982H333.571V112.051H343.64V101.982Z" fill="#EDE9E0"/>
<path d="M21.4291 112.051H11.36V122.12H21.4291V112.051Z" fill="#EDE9E0"/>
<path d="M31.4982 112.051H21.4291V122.12H31.4982V112.051Z" fill="#EDE9E0"/>
<path d="M41.5673 112.051H31.4982V122.12H41.5673V112.051Z" fill="#EDE9E0"/>
<path d="M51.6364 112.051H41.5673V122.12H51.6364V112.051Z" fill="#EDE9E0"/>
<path d="M81.8436 112.051H71.7746V122.12H81.8436V112.051Z" fill="#EDE9E0"/>
<path d="M101.982 112.051H91.9127V122.12H101.982V112.051Z" fill="#EDE9E0"/>
<path d="M112.051 112.051H101.982V122.12H112.051V112.051Z" fill="#EDE9E0"/>
<path d="M122.12 112.051H112.051V122.12H122.12V112.051Z" fill="#EDE9E0"/>
<path d="M162.396 112.051H152.327V122.12H162.396V112.051Z" fill="#EDE9E0"/>
<path d="M182.535 112.051H172.465V122.12H182.535V112.051Z" fill="#EDE9E0"/>
<path d="M222.811 112.051H212.742V122.12H222.811V112.051Z" fill="#EDE9E0"/>
<path d="M273.156 112.051H263.087V122.12H273.156V112.051Z" fill="#EDE9E0"/>
<path d="M283.225 112.051H273.156V122.12H283.225V112.051Z" fill="#EDE9E0"/>
<path d="M293.295 112.051H283.225V122.12H293.295V112.051Z" fill="#EDE9E0"/>
<path d="M333.571 112.051H323.502V122.12H333.571V112.051Z" fill="#EDE9E0"/>
<path d="M21.4291 122.12H11.36V132.189H21.4291V122.12Z" fill="#EDE9E0"/>
<path d="M31.4982 122.12H21.4291V132.189H31.4982V122.12Z" fill="#EDE9E0"/>
<path d="M41.5673 122.12H31.4982V132.189H41.5673V122.12Z" fill="#EDE9E0"/>
<path d="M101.982 122.12H91.9127V132.189H101.982V122.12Z" fill="#EDE9E0"/>
<path d="M112.051 122.12H101.982V132.189H112.051V122.12Z" fill="#EDE9E0"/>
<path d="M132.189 122.12H122.12V132.189H132.189V122.12Z" fill="#EDE9E0"/>
<path d="M142.258 122.12H132.189V132.189H142.258V122.12Z" fill="#EDE9E0"/>
<path d="M152.327 122.12H142.258V132.189H152.327V122.12Z" fill="#EDE9E0"/>
<path d="M182.535 122.12H172.465V132.189H182.535V122.12Z" fill="#EDE9E0"/>
<path d="M202.673 122.12H192.604V132.189H202.673V122.12Z" fill="#EDE9E0"/>
<path d="M222.811 122.12H212.742V132.189H222.811V122.12Z" fill="#EDE9E0"/>
<path d="M232.88 122.12H222.811V132.189H232.88V122.12Z" fill="#EDE9E0"/>
<path d="M242.949 122.12H232.88V132.189H242.949V122.12Z" fill="#EDE9E0"/>
<path d="M253.018 122.12H242.949V132.189H253.018V122.12Z" fill="#EDE9E0"/>
<path d="M303.364 122.12H293.295V132.189H303.364V122.12Z" fill="#EDE9E0"/>
<path d="M61.7055 132.189H51.6364V142.258H61.7055V132.189Z" fill="#EDE9E0"/>
<path d="M71.7746 132.189H61.7055V142.258H71.7746V132.189Z" fill="#EDE9E0"/>
<path d="M81.8436 132.189H71.7746V142.258H81.8436V132.189Z" fill="#EDE9E0"/>
<path d="M91.9127 132.189H81.8436V142.258H91.9127V132.189Z" fill="#EDE9E0"/>
<path d="M101.982 132.189H91.9127V142.258H101.982V132.189Z" fill="#EDE9E0"/>
<path d="M112.051 132.189H101.982V142.258H112.051V132.189Z" fill="#EDE9E0"/>
<path d="M162.396 132.189H152.327V142.258H162.396V132.189Z" fill="#EDE9E0"/>
<path d="M172.465 132.189H162.396V142.258H172.465V132.189Z" fill="#EDE9E0"/>
<path d="M182.535 132.189H172.465V142.258H182.535V132.189Z" fill="#EDE9E0"/>
<path d="M202.673 132.189H192.604V142.258H202.673V132.189Z" fill="#EDE9E0"/>
<path d="M212.742 132.189H202.673V142.258H212.742V132.189Z" fill="#EDE9E0"/>
<path d="M222.811 132.189H212.742V142.258H222.811V132.189Z" fill="#EDE9E0"/>
<path d="M263.087 132.189H253.018V142.258H263.087V132.189Z" fill="#EDE9E0"/>
<path d="M283.225 132.189H273.156V142.258H283.225V132.189Z" fill="#EDE9E0"/>
<path d="M293.295 132.189H283.225V142.258H293.295V132.189Z" fill="#EDE9E0"/>
<path d="M343.64 132.189H333.571V142.258H343.64V132.189Z" fill="#EDE9E0"/>
<path d="M21.4291 142.258H11.36V152.327H21.4291V142.258Z" fill="#EDE9E0"/>
<path d="M31.4982 142.258H21.4291V152.327H31.4982V142.258Z" fill="#EDE9E0"/>
<path d="M41.5673 142.258H31.4982V152.327H41.5673V142.258Z" fill="#EDE9E0"/>
<path d="M91.9127 142.258H81.8436V152.327H91.9127V142.258Z" fill="#EDE9E0"/>
<path d="M112.051 142.258H101.982V152.327H112.051V142.258Z" fill="#EDE9E0"/>
<path d="M122.12 142.258H112.051V152.327H122.12V142.258Z" fill="#EDE9E0"/>
<path d="M132.189 142.258H122.12V152.327H132.189V142.258Z" fill="#EDE9E0"/>
<path d="M142.258 142.258H132.189V152.327H142.258V142.258Z" fill="#EDE9E0"/>
<path d="M172.465 142.258H162.396V152.327H172.465V142.258Z" fill="#EDE9E0"/>
<path d="M212.742 142.258H202.673L202.673 152.327H212.742V142.258Z" fill="#EDE9E0"/>
<path d="M222.811 142.258H212.742V152.327H222.811V142.258Z" fill="#EDE9E0"/>
<path d="M273.156 142.258H263.087V152.327H273.156V142.258Z" fill="#EDE9E0"/>
<path d="M283.225 142.258H273.156V152.327H283.225V142.258Z" fill="#EDE9E0"/>
<path d="M293.295 142.258H283.225V152.327H293.295V142.258Z" fill="#EDE9E0"/>
<path d="M313.433 142.258H303.364V152.327H313.433V142.258Z" fill="#EDE9E0"/>
<path d="M333.571 142.258H323.502V152.327H333.571V142.258Z" fill="#EDE9E0"/>
<path d="M343.64 142.258H333.571V152.327H343.64V142.258Z" fill="#EDE9E0"/>
<path d="M31.4982 152.327H21.4291V162.396H31.4982V152.327Z" fill="#EDE9E0"/>
<path d="M41.5673 152.327H31.4982V162.396H41.5673V152.327Z" fill="#EDE9E0"/>
<path d="M51.6364 152.327H41.5673V162.396H51.6364V152.327Z" fill="#EDE9E0"/>
<path d="M71.7746 152.327H61.7055V162.396H71.7746V152.327Z" fill="#EDE9E0"/>
<path d="M81.8436 152.327H71.7746V162.396H81.8436V152.327Z" fill="#EDE9E0"/>
<path d="M101.982 152.327H91.9127V162.396H101.982V152.327Z" fill="#EDE9E0"/>
<path d="M152.327 152.327H142.258V162.396H152.327V152.327Z" fill="#EDE9E0"/>
<path d="M162.396 152.327H152.327V162.396H162.396V152.327Z" fill="#EDE9E0"/>
<path d="M192.604 152.327H182.535V162.396H192.604V152.327Z" fill="#EDE9E0"/>
<path d="M212.742 152.327H202.673V162.396H212.742V152.327Z" fill="#EDE9E0"/>
<path d="M232.88 152.327H222.811V162.396H232.88V152.327Z" fill="#EDE9E0"/>
<path d="M263.087 152.327H253.018V162.396H263.087V152.327Z" fill="#EDE9E0"/>
<path d="M293.295 152.327H283.225V162.396H293.295V152.327Z" fill="#EDE9E0"/>
<path d="M303.364 152.327H293.295V162.396H303.364V152.327Z" fill="#EDE9E0"/>
<path d="M343.64 152.327H333.571V162.396H343.64V152.327Z" fill="#EDE9E0"/>
<path d="M41.5673 162.396H31.4982V172.465H41.5673V162.396Z" fill="#EDE9E0"/>
<path d="M61.7055 162.396H51.6364V172.465H61.7055V162.396Z" fill="#EDE9E0"/>
<path d="M71.7746 162.396H61.7055V172.465H71.7746V162.396Z" fill="#EDE9E0"/>
<path d="M91.9127 162.396H81.8436V172.465H91.9127V162.396Z" fill="#EDE9E0"/>
<path d="M112.051 162.396H101.982V172.465H112.051V162.396Z" fill="#EDE9E0"/>
<path d="M122.12 162.396H112.051V172.465H122.12V162.396Z" fill="#EDE9E0"/>
<path d="M132.189 162.396H122.12V172.465H132.189V162.396Z" fill="#EDE9E0"/>
<path d="M162.396 162.396H152.327V172.465H162.396V162.396Z" fill="#EDE9E0"/>
<path d="M182.535 162.396H172.465V172.465H182.535V162.396Z" fill="#EDE9E0"/>
<path d="M192.604 162.396H182.535V172.465H192.604V162.396Z" fill="#EDE9E0"/>
<path d="M202.673 162.396H192.604V172.465H202.673L202.673 162.396Z" fill="#EDE9E0"/>
<path d="M212.742 162.396H202.673L202.673 172.465H212.742V162.396Z" fill="#EDE9E0"/>
<path d="M253.018 162.396H242.949V172.465H253.018V162.396Z" fill="#EDE9E0"/>
<path d="M273.156 162.396H263.087V172.465H273.156V162.396Z" fill="#EDE9E0"/>
<path d="M283.225 162.396H273.156V172.465H283.225V162.396Z" fill="#EDE9E0"/>
<path d="M293.295 162.396H283.225V172.465H293.295V162.396Z" fill="#EDE9E0"/>
<path d="M323.502 162.396H313.433V172.465H323.502V162.396Z" fill="#EDE9E0"/>
<path d="M343.64 162.396H333.571V172.465H343.64V162.396Z" fill="#EDE9E0"/>
<path d="M51.6364 172.465H41.5673V182.535H51.6364V172.465Z" fill="#EDE9E0"/>
<path d="M61.7055 172.465H51.6364V182.535H61.7055V172.465Z" fill="#EDE9E0"/>
<path d="M71.7746 172.465H61.7055V182.535H71.7746V172.465Z" fill="#EDE9E0"/>
<path d="M81.8436 172.465H71.7746V182.535H81.8436V172.465Z" fill="#EDE9E0"/>
<path d="M91.9127 172.465H81.8436V182.535H91.9127V172.465Z" fill="#EDE9E0"/>
<path d="M132.189 172.465H122.12V182.535H132.189V172.465Z" fill="#EDE9E0"/>
<path d="M172.465 172.465H162.396V182.535H172.465V172.465Z" fill="#EDE9E0"/>
<path d="M182.535 172.465H172.465V182.535H182.535V172.465Z" fill="#EDE9E0"/>
<path d="M202.673 172.465H192.604V182.535H202.673V172.465Z" fill="#EDE9E0"/>
<path d="M222.811 172.465H212.742V182.535H222.811V172.465Z" fill="#EDE9E0"/>
<path d="M273.156 172.465H263.087V182.535H273.156V172.465Z" fill="#EDE9E0"/>
<path d="M303.364 172.465H293.295V182.535H303.364V172.465Z" fill="#EDE9E0"/>
<path d="M313.433 172.465H303.364V182.535H313.433V172.465Z" fill="#EDE9E0"/>
<path d="M343.64 172.465H333.571V182.535H343.64V172.465Z" fill="#EDE9E0"/>
<path d="M31.4982 182.535H21.4291V192.604H31.4982V182.535Z" fill="#EDE9E0"/>
<path d="M61.7055 182.535H51.6364V192.604H61.7055V182.535Z" fill="#EDE9E0"/>
<path d="M91.9127 182.535H81.8436V192.604H91.9127V182.535Z" fill="#EDE9E0"/>
<path d="M101.982 182.535H91.9127V192.604H101.982V182.535Z" fill="#EDE9E0"/>
<path d="M112.051 182.535H101.982V192.604H112.051V182.535Z" fill="#EDE9E0"/>
<path d="M142.258 182.535H132.189V192.604H142.258V182.535Z" fill="#EDE9E0"/>
<path d="M152.327 182.535H142.258V192.604H152.327V182.535Z" fill="#EDE9E0"/>
<path d="M192.604 182.535H182.535V192.604H192.604V182.535Z" fill="#EDE9E0"/>
<path d="M202.673 182.535H192.604V192.604H202.673V182.535Z" fill="#EDE9E0"/>
<path d="M232.88 182.535H222.811V192.604H232.88V182.535Z" fill="#EDE9E0"/>
<path d="M242.949 182.535H232.88V192.604H242.949V182.535Z" fill="#EDE9E0"/>
<path d="M253.018 182.535H242.949V192.604H253.018V182.535Z" fill="#EDE9E0"/>
<path d="M273.156 182.535H263.087V192.604H273.156V182.535Z" fill="#EDE9E0"/>
<path d="M283.225 182.535H273.156V192.604H283.225V182.535Z" fill="#EDE9E0"/>
<path d="M293.295 182.535H283.225V192.604H293.295V182.535Z" fill="#EDE9E0"/>
<path d="M303.364 182.535H293.295V192.604H303.364V182.535Z" fill="#EDE9E0"/>
<path d="M313.433 182.535H303.364V192.604H313.433V182.535Z" fill="#EDE9E0"/>
<path d="M323.502 182.535H313.433V192.604H323.502V182.535Z" fill="#EDE9E0"/>
<path d="M343.64 182.535H333.571V192.604H343.64V182.535Z" fill="#EDE9E0"/>
<path d="M21.4291 192.604H11.36V202.673H21.4291V192.604Z" fill="#EDE9E0"/>
<path d="M31.4982 192.604H21.4291V202.673H31.4982V192.604Z" fill="#EDE9E0"/>
<path d="M41.5673 192.604H31.4982V202.673H41.5673V192.604Z" fill="#EDE9E0"/>
<path d="M51.6364 192.604H41.5673V202.673H51.6364V192.604Z" fill="#EDE9E0"/>
<path d="M61.7055 192.604H51.6364V202.673H61.7055V192.604Z" fill="#EDE9E0"/>
<path d="M71.7746 192.604H61.7055V202.673H71.7746V192.604Z" fill="#EDE9E0"/>
<path d="M81.8436 192.604H71.7746V202.673H81.8436V192.604Z" fill="#EDE9E0"/>
<path d="M101.982 192.604H91.9127V202.673H101.982V192.604Z" fill="#EDE9E0"/>
<path d="M112.051 192.604H101.982V202.673H112.051V192.604Z" fill="#EDE9E0"/>
<path d="M132.189 192.604H122.12V202.673H132.189V192.604Z" fill="#EDE9E0"/>
<path d="M152.327 192.604H142.258V202.673H152.327V192.604Z" fill="#EDE9E0"/>
<path d="M192.604 192.604H182.535V202.673H192.604V192.604Z" fill="#EDE9E0"/>
<path d="M202.673 192.604H192.604V202.673H202.673V192.604Z" fill="#EDE9E0"/>
<path d="M222.811 192.604H212.742V202.673H222.811V192.604Z" fill="#EDE9E0"/>
<path d="M242.949 192.604H232.88V202.673H242.949V192.604Z" fill="#EDE9E0"/>
<path d="M293.295 192.604H283.225V202.673H293.295V192.604Z" fill="#EDE9E0"/>
<path d="M313.433 192.604H303.364V202.673H313.433V192.604Z" fill="#EDE9E0"/>
<path d="M21.4291 202.673H11.36V212.742H21.4291V202.673Z" fill="#EDE9E0"/>
<path d="M41.5673 202.673H31.4982V212.742H41.5673V202.673Z" fill="#EDE9E0"/>
<path d="M51.6364 202.673H41.5673V212.742H51.6364V202.673Z" fill="#EDE9E0"/>
<path d="M61.7055 202.673H51.6364V212.742H61.7055V202.673Z" fill="#EDE9E0"/>
<path d="M91.9127 202.673H81.8436V212.742H91.9127V202.673Z" fill="#EDE9E0"/>
<path d="M101.982 202.673H91.9127V212.742H101.982V202.673Z" fill="#EDE9E0"/>
<path d="M112.051 202.673H101.982V212.742H112.051V202.673Z" fill="#EDE9E0"/>
<path d="M122.12 202.673H112.051V212.742H122.12V202.673Z" fill="#EDE9E0"/>
<path d="M132.189 202.673H122.12V212.742H132.189V202.673Z" fill="#EDE9E0"/>
<path d="M142.258 202.673H132.189V212.742H142.258V202.673Z" fill="#EDE9E0"/>
<path d="M162.396 202.673L152.327 202.673V212.742H162.396V202.673Z" fill="#EDE9E0"/>
<path d="M172.465 202.673H162.396V212.742H172.465V202.673Z" fill="#EDE9E0"/>
<path d="M182.535 202.673L172.465 202.673V212.742H182.535V202.673Z" fill="#EDE9E0"/>
<path d="M212.742 202.673H202.673L202.673 212.742H212.742V202.673Z" fill="#EDE9E0"/>
<path d="M222.811 202.673H212.742V212.742H222.811V202.673Z" fill="#EDE9E0"/>
<path d="M232.88 202.673H222.811V212.742H232.88V202.673Z" fill="#EDE9E0"/>
<path d="M283.225 202.673L273.156 202.673V212.742H283.225V202.673Z" fill="#EDE9E0"/>
<path d="M303.364 202.673H293.295V212.742H303.364V202.673Z" fill="#EDE9E0"/>
<path d="M313.433 202.673H303.364V212.742H313.433V202.673Z" fill="#EDE9E0"/>
<path d="M323.502 202.673L313.433 202.673V212.742H323.502V202.673Z" fill="#EDE9E0"/>
<path d="M51.6364 212.742H41.5673V222.811H51.6364V212.742Z" fill="#EDE9E0"/>
<path d="M71.7746 212.742H61.7055V222.811H71.7746V212.742Z" fill="#EDE9E0"/>
<path d="M81.8436 212.742H71.7746V222.811H81.8436V212.742Z" fill="#EDE9E0"/>
<path d="M112.051 212.742H101.982V222.811H112.051V212.742Z" fill="#EDE9E0"/>
<path d="M172.465 212.742H162.396V222.811H172.465V212.742Z" fill="#EDE9E0"/>
<path d="M182.535 212.742H172.465V222.811H182.535V212.742Z" fill="#EDE9E0"/>
<path d="M192.604 212.742H182.535V222.811H192.604V212.742Z" fill="#EDE9E0"/>
<path d="M202.673 212.742H192.604V222.811H202.673L202.673 212.742Z" fill="#EDE9E0"/>
<path d="M212.742 212.742H202.673L202.673 222.811H212.742V212.742Z" fill="#EDE9E0"/>
<path d="M222.811 212.742H212.742V222.811H222.811V212.742Z" fill="#EDE9E0"/>
<path d="M242.949 212.742H232.88V222.811H242.949V212.742Z" fill="#EDE9E0"/>
<path d="M283.225 212.742H273.156V222.811H283.225V212.742Z" fill="#EDE9E0"/>
<path d="M293.295 212.742H283.225V222.811H293.295V212.742Z" fill="#EDE9E0"/>
<path d="M303.364 212.742H293.295V222.811H303.364V212.742Z" fill="#EDE9E0"/>
<path d="M313.433 212.742H303.364V222.811H313.433V212.742Z" fill="#EDE9E0"/>
<path d="M323.502 212.742H313.433V222.811H323.502V212.742Z" fill="#EDE9E0"/>
<path d="M333.571 212.742H323.502V222.811H333.571V212.742Z" fill="#EDE9E0"/>
<path d="M21.4291 222.811H11.36V232.88H21.4291V222.811Z" fill="#EDE9E0"/>
<path d="M41.5673 222.811H31.4982V232.88H41.5673V222.811Z" fill="#EDE9E0"/>
<path d="M51.6364 222.811H41.5673V232.88H51.6364V222.811Z" fill="#EDE9E0"/>
<path d="M71.7746 222.811H61.7055V232.88H71.7746V222.811Z" fill="#EDE9E0"/>
<path d="M112.051 222.811H101.982V232.88H112.051V222.811Z" fill="#EDE9E0"/>
<path d="M122.12 222.811H112.051V232.88H122.12V222.811Z" fill="#EDE9E0"/>
<path d="M132.189 222.811H122.12V232.88H132.189V222.811Z" fill="#EDE9E0"/>
<path d="M142.258 222.811H132.189V232.88H142.258V222.811Z" fill="#EDE9E0"/>
<path d="M152.327 222.811H142.258V232.88H152.327V222.811Z" fill="#EDE9E0"/>
<path d="M212.742 222.811H202.673L202.673 232.88H212.742V222.811Z" fill="#EDE9E0"/>
<path d="M242.949 222.811H232.88V232.88H242.949V222.811Z" fill="#EDE9E0"/>
<path d="M273.156 222.811H263.087V232.88H273.156V222.811Z" fill="#EDE9E0"/>
<path d="M283.225 222.811H273.156V232.88H283.225V222.811Z" fill="#EDE9E0"/>
<path d="M313.433 222.811H303.364V232.88H313.433V222.811Z" fill="#EDE9E0"/>
<path d="M323.502 222.811H313.433V232.88H323.502V222.811Z" fill="#EDE9E0"/>
<path d="M21.4291 232.88H11.36V242.949H21.4291V232.88Z" fill="#EDE9E0"/>
<path d="M41.5673 232.88H31.4982V242.949H41.5673V232.88Z" fill="#EDE9E0"/>
<path d="M81.8436 232.88H71.7746V242.949H81.8436V232.88Z" fill="#EDE9E0"/>
<path d="M91.9127 232.88H81.8436V242.949H91.9127V232.88Z" fill="#EDE9E0"/>
<path d="M112.051 232.88H101.982V242.949H112.051V232.88Z" fill="#EDE9E0"/>
<path d="M182.535 232.88H172.465V242.949H182.535V232.88Z" fill="#EDE9E0"/>
<path d="M202.673 232.88H192.604V242.949H202.673L202.673 232.88Z" fill="#EDE9E0"/>
<path d="M212.742 232.88H202.673L202.673 242.949H212.742V232.88Z" fill="#EDE9E0"/>
<path d="M222.811 232.88H212.742V242.949H222.811V232.88Z" fill="#EDE9E0"/>
<path d="M232.88 232.88H222.811V242.949H232.88V232.88Z" fill="#EDE9E0"/>
<path d="M253.018 232.88H242.949V242.949H253.018V232.88Z" fill="#EDE9E0"/>
<path d="M303.364 232.88H293.295V242.949H303.364V232.88Z" fill="#EDE9E0"/>
<path d="M313.433 232.88H303.364V242.949H313.433V232.88Z" fill="#EDE9E0"/>
<path d="M323.502 232.88H313.433V242.949H323.502V232.88Z" fill="#EDE9E0"/>
<path d="M333.571 232.88H323.502V242.949H333.571V232.88Z" fill="#EDE9E0"/>
<path d="M71.7746 242.949H61.7055V253.018H71.7746V242.949Z" fill="#EDE9E0"/>
<path d="M91.9127 242.949H81.8436V253.018H91.9127V242.949Z" fill="#EDE9E0"/>
<path d="M101.982 242.949H91.9127V253.018H101.982V242.949Z" fill="#EDE9E0"/>
<path d="M112.051 242.949H101.982V253.018H112.051V242.949Z" fill="#EDE9E0"/>
<path d="M122.12 242.949H112.051V253.018H122.12V242.949Z" fill="#EDE9E0"/>
<path d="M132.189 242.949H122.12V253.018H132.189V242.949Z" fill="#EDE9E0"/>
<path d="M142.258 242.949H132.189V253.018H142.258V242.949Z" fill="#EDE9E0"/>
<path d="M152.327 242.949H142.258V253.018H152.327V242.949Z" fill="#EDE9E0"/>
<path d="M202.673 242.949H192.604V253.018H202.673V242.949Z" fill="#EDE9E0"/>
<path d="M212.742 242.949H202.673V253.018H212.742V242.949Z" fill="#EDE9E0"/>
<path d="M222.811 242.949H212.742V253.018H222.811V242.949Z" fill="#EDE9E0"/>
<path d="M232.88 242.949H222.811V253.018H232.88V242.949Z" fill="#EDE9E0"/>
<path d="M242.949 242.949H232.88V253.018H242.949V242.949Z" fill="#EDE9E0"/>
<path d="M283.225 242.949H273.156V253.018H283.225V242.949Z" fill="#EDE9E0"/>
<path d="M293.295 242.949H283.225V253.018H293.295V242.949Z" fill="#EDE9E0"/>
<path d="M303.364 242.949H293.295V253.018H303.364V242.949Z" fill="#EDE9E0"/>
<path d="M313.433 242.949H303.364V253.018H313.433V242.949Z" fill="#EDE9E0"/>
<path d="M323.502 242.949H313.433V253.018H323.502V242.949Z" fill="#EDE9E0"/>
<path d="M333.571 242.949H323.502V253.018H333.571V242.949Z" fill="#EDE9E0"/>
<path d="M343.64 242.949H333.571V253.018H343.64V242.949Z" fill="#EDE9E0"/>
<path d="M31.4982 253.018H21.4291V263.087H31.4982V253.018Z" fill="#EDE9E0"/>
<path d="M41.5673 253.018H31.4982V263.087H41.5673V253.018Z" fill="#EDE9E0"/>
<path d="M81.8436 253.018H71.7746V263.087H81.8436V253.018Z" fill="#EDE9E0"/>
<path d="M142.258 253.018H132.189V263.087H142.258V253.018Z" fill="#EDE9E0"/>
<path d="M172.465 253.018H162.396V263.087H172.465V253.018Z" fill="#EDE9E0"/>
<path d="M222.811 253.018H212.742V263.087H222.811V253.018Z" fill="#EDE9E0"/>
<path d="M242.949 253.018H232.88V263.087H242.949V253.018Z" fill="#EDE9E0"/>
<path d="M253.018 253.018H242.949V263.087H253.018V253.018Z" fill="#EDE9E0"/>
<path d="M263.087 253.018H253.018V263.087H263.087V253.018Z" fill="#EDE9E0"/>
<path d="M273.156 253.018H263.087V263.087H273.156V253.018Z" fill="#EDE9E0"/>
<path d="M283.225 253.018H273.156V263.087H283.225V253.018Z" fill="#EDE9E0"/>
<path d="M293.295 253.018H283.225V263.087H293.295V253.018Z" fill="#EDE9E0"/>
<path d="M303.364 253.018H293.295V263.087H303.364V253.018Z" fill="#EDE9E0"/>
<path d="M343.64 253.018H333.571V263.087H343.64V253.018Z" fill="#EDE9E0"/>
<path d="M101.982 263.087H91.9127V273.156H101.982V263.087Z" fill="#EDE9E0"/>
<path d="M122.12 263.087H112.051V273.156H122.12V263.087Z" fill="#EDE9E0"/>
<path d="M132.189 263.087H122.12V273.156H132.189V263.087Z" fill="#EDE9E0"/>
<path d="M152.327 263.087H142.258V273.156H152.327V263.087Z" fill="#EDE9E0"/>
<path d="M172.465 263.087H162.396V273.156H172.465V263.087Z" fill="#EDE9E0"/>
<path d="M182.535 263.087H172.465V273.156H182.535V263.087Z" fill="#EDE9E0"/>
<path d="M192.604 263.087H182.535V273.156H192.604V263.087Z" fill="#EDE9E0"/>
<path d="M202.673 263.087H192.604V273.156H202.673V263.087Z" fill="#EDE9E0"/>
<path d="M232.88 263.087H222.811V273.156H232.88V263.087Z" fill="#EDE9E0"/>
<path d="M242.949 263.087H232.88V273.156H242.949V263.087Z" fill="#EDE9E0"/>
<path d="M253.018 263.087H242.949V273.156H253.018V263.087Z" fill="#EDE9E0"/>
<path d="M263.087 263.087H253.018V273.156H263.087V263.087Z" fill="#EDE9E0"/>
<path d="M303.364 263.087H293.295V273.156H303.364V263.087Z" fill="#EDE9E0"/>
<path d="M313.433 263.087H303.364V273.156H313.433V263.087Z" fill="#EDE9E0"/>
<path d="M21.4291 273.156H11.36V283.225H21.4291V273.156Z" fill="#EDE9E0"/>
<path d="M31.4982 273.156H21.4291V283.225H31.4982V273.156Z" fill="#EDE9E0"/>
<path d="M41.5673 273.156H31.4982V283.225H41.5673V273.156Z" fill="#EDE9E0"/>
<path d="M51.6364 273.156H41.5673V283.225H51.6364V273.156Z" fill="#EDE9E0"/>
<path d="M61.7055 273.156H51.6364V283.225H61.7055V273.156Z" fill="#EDE9E0"/>
<path d="M71.7746 273.156H61.7055V283.225H71.7746V273.156Z" fill="#EDE9E0"/>
<path d="M81.8436 273.156H71.7746V283.225H81.8436V273.156Z" fill="#EDE9E0"/>
<path d="M132.189 273.156H122.12V283.225H132.189V273.156Z" fill="#EDE9E0"/>
<path d="M142.258 273.156H132.189V283.225H142.258V273.156Z" fill="#EDE9E0"/>
<path d="M162.396 273.156H152.327V283.225H162.396V273.156Z" fill="#EDE9E0"/>
<path d="M182.535 273.156H172.465V283.225H182.535V273.156Z" fill="#EDE9E0"/>
<path d="M192.604 273.156H182.535V283.225H192.604V273.156Z" fill="#EDE9E0"/>
<path d="M212.742 273.156H202.673L202.673 283.225H212.742V273.156Z" fill="#EDE9E0"/>
<path d="M242.949 273.156H232.88V283.225H242.949V273.156Z" fill="#EDE9E0"/>
<path d="M263.087 273.156H253.018V283.225H263.087V273.156Z" fill="#EDE9E0"/>
<path d="M283.225 273.156H273.156V283.225H283.225V273.156Z" fill="#EDE9E0"/>
<path d="M303.364 273.156H293.295V283.225H303.364V273.156Z" fill="#EDE9E0"/>
<path d="M333.571 273.156H323.502V283.225H333.571V273.156Z" fill="#EDE9E0"/>
<path d="M21.4291 283.225H11.36V293.295H21.4291V283.225Z" fill="#EDE9E0"/>
<path d="M81.8436 283.225H71.7746V293.295H81.8436V283.225Z" fill="#EDE9E0"/>
<path d="M112.051 283.225H101.982V293.295H112.051V283.225Z" fill="#EDE9E0"/>
<path d="M142.258 283.225H132.189V293.295H142.258V283.225Z" fill="#EDE9E0"/>
<path d="M152.327 283.225H142.258V293.295H152.327V283.225Z" fill="#EDE9E0"/>
<path d="M172.465 283.225H162.396V293.295H172.465V283.225Z" fill="#EDE9E0"/>
<path d="M182.535 283.225H172.465V293.295H182.535V283.225Z" fill="#EDE9E0"/>
<path d="M192.604 283.225H182.535V293.295H192.604V283.225Z" fill="#EDE9E0"/>
<path d="M202.673 283.225H192.604V293.295H202.673L202.673 283.225Z" fill="#EDE9E0"/>
<path d="M212.742 283.225H202.673L202.673 293.295H212.742V283.225Z" fill="#EDE9E0"/>
<path d="M222.811 283.225H212.742V293.295H222.811V283.225Z" fill="#EDE9E0"/>
<path d="M232.88 283.225H222.811V293.295H232.88V283.225Z" fill="#EDE9E0"/>
<path d="M263.087 283.225H253.018V293.295H263.087V283.225Z" fill="#EDE9E0"/>
<path d="M303.364 283.225H293.295V293.295H303.364V283.225Z" fill="#EDE9E0"/>
<path d="M313.433 283.225H303.364V293.295H313.433V283.225Z" fill="#EDE9E0"/>
<path d="M333.571 283.225H323.502V293.295H333.571V283.225Z" fill="#EDE9E0"/>
<path d="M21.4291 293.295H11.36V303.364H21.4291V293.295Z" fill="#EDE9E0"/>
<path d="M41.5673 293.295H31.4982V303.364H41.5673V293.295Z" fill="#EDE9E0"/>
<path d="M51.6364 293.295H41.5673V303.364H51.6364V293.295Z" fill="#EDE9E0"/>
<path d="M61.7055 293.295H51.6364V303.364H61.7055V293.295Z" fill="#EDE9E0"/>
<path d="M81.8436 293.295H71.7746V303.364H81.8436V293.295Z" fill="#EDE9E0"/>
<path d="M101.982 293.295H91.9127V303.364H101.982V293.295Z" fill="#EDE9E0"/>
<path d="M112.051 293.295H101.982V303.364H112.051V293.295Z" fill="#EDE9E0"/>
<path d="M122.12 293.295H112.051V303.364H122.12V293.295Z" fill="#EDE9E0"/>
<path d="M182.535 293.295H172.465V303.364H182.535V293.295Z" fill="#EDE9E0"/>
<path d="M192.604 293.295H182.535V303.364H192.604V293.295Z" fill="#EDE9E0"/>
<path d="M202.673 293.295H192.604V303.364H202.673V293.295Z" fill="#EDE9E0"/>
<path d="M232.88 293.295H222.811V303.364H232.88V293.295Z" fill="#EDE9E0"/>
<path d="M263.087 293.295H253.018V303.364H263.087V293.295Z" fill="#EDE9E0"/>
<path d="M273.156 293.295H263.087V303.364H273.156V293.295Z" fill="#EDE9E0"/>
<path d="M283.225 293.295H273.156V303.364H283.225V293.295Z" fill="#EDE9E0"/>
<path d="M293.295 293.295H283.225V303.364H293.295V293.295Z" fill="#EDE9E0"/>
<path d="M303.364 293.295H293.295V303.364H303.364V293.295Z" fill="#EDE9E0"/>
<path d="M323.502 293.295H313.433V303.364H323.502V293.295Z" fill="#EDE9E0"/>
<path d="M333.571 293.295H323.502V303.364H333.571V293.295Z" fill="#EDE9E0"/>
<path d="M343.64 293.295H333.571V303.364H343.64V293.295Z" fill="#EDE9E0"/>
<path d="M21.4291 303.364H11.36V313.433H21.4291V303.364Z" fill="#EDE9E0"/>
<path d="M41.5673 303.364H31.4982V313.433H41.5673V303.364Z" fill="#EDE9E0"/>
<path d="M51.6364 303.364H41.5673V313.433H51.6364V303.364Z" fill="#EDE9E0"/>
<path d="M61.7055 303.364H51.6364V313.433H61.7055V303.364Z" fill="#EDE9E0"/>
<path d="M81.8436 303.364H71.7746V313.433H81.8436V303.364Z" fill="#EDE9E0"/>
<path d="M132.189 303.364H122.12V313.433H132.189V303.364Z" fill="#EDE9E0"/>
<path d="M172.465 303.364H162.396V313.433H172.465V303.364Z" fill="#EDE9E0"/>
<path d="M182.535 303.364H172.465V313.433H182.535V303.364Z" fill="#EDE9E0"/>
<path d="M212.742 303.364H202.673L202.673 313.433H212.742V303.364Z" fill="#EDE9E0"/>
<path d="M242.949 303.364H232.88V313.433H242.949V303.364Z" fill="#EDE9E0"/>
<path d="M263.087 303.364H253.018V313.433H263.087V303.364Z" fill="#EDE9E0"/>
<path d="M293.295 303.364H283.225V313.433H293.295V303.364Z" fill="#EDE9E0"/>
<path d="M303.364 303.364H293.295V313.433H303.364V303.364Z" fill="#EDE9E0"/>
<path d="M333.571 303.364H323.502V313.433H333.571V303.364Z" fill="#EDE9E0"/>
<path d="M21.4291 313.433H11.36V323.502H21.4291V313.433Z" fill="#EDE9E0"/>
<path d="M41.5673 313.433H31.4982V323.502H41.5673V313.433Z" fill="#EDE9E0"/>
<path d="M51.6364 313.433H41.5673V323.502H51.6364V313.433Z" fill="#EDE9E0"/>
<path d="M61.7055 313.433H51.6364V323.502H61.7055V313.433Z" fill="#EDE9E0"/>
<path d="M81.8436 313.433H71.7746V323.502H81.8436V313.433Z" fill="#EDE9E0"/>
<path d="M101.982 313.433H91.9127V323.502H101.982V313.433Z" fill="#EDE9E0"/>
<path d="M172.465 313.433H162.396V323.502H172.465V313.433Z" fill="#EDE9E0"/>
<path d="M212.742 313.433H202.673V323.502H212.742V313.433Z" fill="#EDE9E0"/>
<path d="M242.949 313.433H232.88V323.502H242.949V313.433Z" fill="#EDE9E0"/>
<path d="M253.018 313.433H242.949V323.502H253.018V313.433Z" fill="#EDE9E0"/>
<path d="M283.225 313.433H273.156V323.502H283.225V313.433Z" fill="#EDE9E0"/>
<path d="M293.295 313.433H283.225V323.502H293.295V313.433Z" fill="#EDE9E0"/>
<path d="M333.571 313.433H323.502V323.502H333.571V313.433Z" fill="#EDE9E0"/>
<path d="M21.4291 323.502H11.36V333.571H21.4291V323.502Z" fill="#EDE9E0"/>
<path d="M81.8436 323.502H71.7746V333.571H81.8436V323.502Z" fill="#EDE9E0"/>
<path d="M101.982 323.502H91.9127V333.571H101.982V323.502Z" fill="#EDE9E0"/>
<path d="M112.051 323.502H101.982V333.571H112.051V323.502Z" fill="#EDE9E0"/>
<path d="M122.12 323.502H112.051V333.571H122.12V323.502Z" fill="#EDE9E0"/>
<path d="M162.396 323.502H152.327V333.571H162.396V323.502Z" fill="#EDE9E0"/>
<path d="M172.465 323.502H162.396V333.571H172.465V323.502Z" fill="#EDE9E0"/>
<path d="M182.535 323.502H172.465V333.571H182.535V323.502Z" fill="#EDE9E0"/>
<path d="M192.604 323.502H182.535V333.571H192.604V323.502Z" fill="#EDE9E0"/>
<path d="M222.811 323.502H212.742V333.571H222.811V323.502Z" fill="#EDE9E0"/>
<path d="M242.949 323.502H232.88V333.571H242.949V323.502Z" fill="#EDE9E0"/>
<path d="M253.018 323.502H242.949V333.571H253.018V323.502Z" fill="#EDE9E0"/>
<path d="M273.156 323.502H263.087V333.571H273.156V323.502Z" fill="#EDE9E0"/>
<path d="M303.364 323.502H293.295V333.571H303.364V323.502Z" fill="#EDE9E0"/>
<path d="M313.433 323.502H303.364V333.571H313.433V323.502Z" fill="#EDE9E0"/>
<path d="M323.502 323.502H313.433V333.571H323.502V323.502Z" fill="#EDE9E0"/>
<path d="M333.571 323.502H323.502V333.571H333.571V323.502Z" fill="#EDE9E0"/>
<path d="M21.4291 333.571H11.36V343.64H21.4291V333.571Z" fill="#EDE9E0"/>
<path d="M31.4982 333.571H21.4291V343.64H31.4982V333.571Z" fill="#EDE9E0"/>
<path d="M41.5673 333.571H31.4982V343.64H41.5673V333.571Z" fill="#EDE9E0"/>
<path d="M51.6364 333.571H41.5673V343.64H51.6364V333.571Z" fill="#EDE9E0"/>
<path d="M61.7055 333.571H51.6364V343.64H61.7055V333.571Z" fill="#EDE9E0"/>
<path d="M71.7746 333.571H61.7055V343.64H71.7746V333.571Z" fill="#EDE9E0"/>
<path d="M81.8436 333.571H71.7746V343.64H81.8436V333.571Z" fill="#EDE9E0"/>
<path d="M101.982 333.571H91.9127V343.64H101.982V333.571Z" fill="#EDE9E0"/>
<path d="M122.12 333.571H112.051V343.64H122.12V333.571Z" fill="#EDE9E0"/>
<path d="M142.258 333.571H132.189V343.64H142.258V333.571Z" fill="#EDE9E0"/>
<path d="M162.396 333.571H152.327V343.64H162.396V333.571Z" fill="#EDE9E0"/>
<path d="M192.604 333.571H182.535V343.64H192.604V333.571Z" fill="#EDE9E0"/>
<path d="M202.673 333.571H192.604V343.64H202.673V333.571Z" fill="#EDE9E0"/>
<path d="M222.811 333.571H212.742V343.64H222.811V333.571Z" fill="#EDE9E0"/>
<path d="M263.087 333.571H253.018V343.64H263.087V333.571Z" fill="#EDE9E0"/>
<path d="M293.295 333.571H283.225V343.64H293.295V333.571Z" fill="#EDE9E0"/>
<path d="M303.364 333.571H293.295V343.64H303.364V333.571Z" fill="#EDE9E0"/>
<path d="M313.433 333.571H303.364V343.64H313.433V333.571Z" fill="#EDE9E0"/>
<path d="M323.502 333.571H313.433V343.64H323.502V333.571Z" fill="#EDE9E0"/>
<path d="M333.571 333.571H323.502V343.64H333.571V333.571Z" fill="#EDE9E0"/>
</g>
<defs>
<linearGradient id="paint0_linear_255_240" x1="0" y1="205.234" x2="344.857" y2="205.234" gradientUnits="userSpaceOnUse">
<stop stop-color="#3B231F"/>
<stop offset="1" stop-color="#633528"/>
</linearGradient>
<clipPath id="clip0_255_240">
<rect width="355" height="355" fill="white"/>
</clipPath>
</defs>
</svg>
